<?xml version="1.0" ?><svg id="Layer_1" style="enable-background:new 0 0 96 96;" version="1.1" viewBox="0 0 96 96" xml:space="preserve" xmlns="http://www.w3.org/2000/svg" xmlns:xlink="http://www.w3.org/1999/xlink"><style type="text/css">
	.st0{fill:#F7C44C;}
	.st1{fill:#292D34;}
	.st2{fill:#2DCB73;}
	.st3{fill:#FFFFFF;}
</style><g><g><polygon class="st3" points="91.9,88.2 53.2,88.2 61,63.5 84.1,63.5   "/><path class="st1" d="M94.6,90.1H50.5l9-28.7h26L94.6,90.1z M55.9,86.2h33.3l-6.5-20.7H62.5L55.9,86.2z"/></g><g><polygon class="st0" points="67.2,40 28.5,40 36.3,15.3 59.4,15.3   "/><path class="st0" d="M69.9,42H25.8l9-28.7h26L69.9,42z M31.2,38h33.3L58,17.3H37.8L31.2,38z"/></g><g><polygon class="st2" points="42.5,88.2 3.8,88.2 11.6,63.5 34.7,63.5   "/><path class="st1" d="M45.2,90.1H1.1l9-28.7h26L45.2,90.1z M6.5,86.2h33.3l-6.5-20.7H13.1L6.5,86.2z"/></g><g><path class="st2" d="M64.2,22.7L64.2,22.7c0-4.7-3.8-8.4-8.4-8.4v0c4.7,0,8.4-3.8,8.4-8.4h0c0,4.7,3.8,8.4,8.4,8.4v0    C67.9,14.3,64.2,18,64.2,22.7z"/></g><g><path class="st0" d="M86.4,68.2L86.4,68.2c0-4.7-3.8-8.4-8.4-8.4v0c4.7,0,8.4-3.8,8.4-8.4h0c0,4.7,3.8,8.4,8.4,8.4v0    C90.2,59.8,86.4,63.6,86.4,68.2z"/></g><g><path class="st2" d="M59.7,71.9L59.7,71.9c0-4.7-3.8-8.4-8.4-8.4v0c4.7,0,8.4-3.8,8.4-8.4h0c0,4.7,3.8,8.4,8.4,8.4v0    C63.5,63.5,59.7,67.2,59.7,71.9z"/></g><g><path class="st0" d="M31.6,65.5L31.6,65.5c0-4.7-3.8-8.4-8.4-8.4v0c4.7,0,8.4-3.8,8.4-8.4h0c0,4.7,3.8,8.4,8.4,8.4v0    C35.4,57.1,31.6,60.8,31.6,65.5z"/></g></g></svg>