<?xml version="1.0" encoding="iso-8859-1"?>
<!-- Generator: Adobe Illustrator 19.0.0, SVG Export Plug-In . SVG Version: 6.00 Build 0)  -->
<svg xmlns="http://www.w3.org/2000/svg" xmlns:xlink="http://www.w3.org/1999/xlink" version="1.1" id="Capa_1" x="0px" y="0px" viewBox="0 0 455 455" style="enable-background:new 0 0 455 455;" xml:space="preserve" width="512" height="512">
<g>
	<path style="fill:#6DA8D6;" d="M289.363,252.15c-27.488,0-50.261,20.509-53.858,47.026h-16.019   c-3.597-26.517-26.37-47.026-53.858-47.026c-29.979,0-54.367,24.389-54.367,54.368c0,29.978,24.389,54.367,54.367,54.367   c27.378,0,50.083-20.345,53.817-46.708h16.1c3.735,26.363,26.439,46.708,53.817,46.708c29.979,0,54.368-24.389,54.368-54.367   C343.732,276.539,319.342,252.15,289.363,252.15z"/>
	<path style="fill:#6DA8D6;" d="M118.76,73.998V221.77c13.898-7.717,29.878-12.12,46.869-12.12c23.503,0,45.074,8.416,61.867,22.389   c16.793-13.973,38.365-22.389,61.867-22.389c16.99,0,32.969,4.402,46.866,12.118V73.998H118.76z"/>
	<rect x="423.79" y="53.998" style="fill:#185F8D;" width="31.21" height="30"/>
	<polygon style="fill:#185F8D;" points="423.79,53.998 423.79,83.998 336.23,83.998 118.76,83.998 0,83.998 0,53.998  "/>
	<circle style="fill:#082947;" cx="292.66" cy="154.268" r="7.5"/>
	<circle style="fill:#082947;" cx="272.66" cy="184.268" r="7.5"/>
	<circle style="fill:#C1E8E6;" cx="289.364" cy="306.518" r="39.367"/>
	<circle style="fill:#C1E8E6;" cx="165.629" cy="306.518" r="39.367"/>
	<path style="fill:#274B6D;" d="M423.79,46.498c-4.143,0-7.5,3.358-7.5,7.5v159.38h15V53.998   C431.29,49.856,427.933,46.498,423.79,46.498z"/>
	<circle style="fill:#185F8D;" cx="272.66" cy="184.27" r="7.5"/>
	<circle style="fill:#185F8D;" cx="292.66" cy="154.27" r="7.5"/>
	<path style="fill:#F2EBD9;" d="M398.79,258.378v150.124h25l10-87.562l-10-87.562C409.983,233.378,398.79,244.571,398.79,258.378z"/>
	<path style="fill:#FFCC75;" d="M448.79,258.378c0-13.807-11.193-25-25-25v175.124h25V258.378z"/>
	<path style="fill:#FFCC75;" d="M423.79,198.378c11.04,0,20,8.96,20,20s-8.96,20-20,20c-11.04,0-20-8.96-20-20   S412.75,198.378,423.79,198.378z"/>
</g>















</svg>
