<?xml version="1.0" ?><svg id="Layer_1" style="enable-background:new 0 0 96 96;" version="1.1" viewBox="0 0 96 96" xml:space="preserve" xmlns="http://www.w3.org/2000/svg" xmlns:xlink="http://www.w3.org/1999/xlink"><style type="text/css">
	.st0{fill:#FFFFFF;}
	.st1{fill:#292D34;}
	.st2{fill:#2DCB73;}
	.st3{fill:#F7C44C;}
	.st4{fill:none;}
</style><g><g><rect class="st3" height="64.6" width="81.9" x="7" y="7.4"/><path class="st1" d="M90.9,74H5.1V5.5h85.9V74z M9,70h78V9.4H9V70z"/></g><g><rect class="st0" height="50.8" width="68.2" x="13.9" y="14.3"/><path class="st1" d="M84.1,67.1H11.9V12.3h72.1V67.1z M15.9,63.2h64.3V16.3H15.9V63.2z"/></g><g><polygon class="st2" points="90.1,88.6 5.9,88.6 2.9,72 93.1,72   "/><path class="st1" d="M91.8,90.5H4.2L0.5,70h95L91.8,90.5z M7.5,86.6h81L90.8,74H5.2L7.5,86.6z"/></g><g><polygon class="st1" points="24.6,54.7 21.3,52.7 29.8,38.6 42.3,45.9 50,31.4 62.3,39.2 69.5,26.7 72.9,28.6 63.7,44.6 51.5,37     43.8,51.3 31.2,43.9   "/></g><g><polygon class="st1" points="71.1,39.5 70.3,28.5 59.9,32.3 58.5,28.6 73.8,23 75,39.2   "/></g><g><rect class="st1" height="3.9" width="4.5" x="14.7" y="78.3"/></g><g><rect class="st1" height="4.5" width="3.9" x="79.4" y="78"/></g><g><rect class="st1" height="4.5" width="3.9" x="69.8" y="78"/></g><g><rect class="st1" height="3.9" width="4.5" x="25.7" y="78.3"/></g><g><rect class="st1" height="3.9" width="4.5" x="36.7" y="78.3"/></g><g><path class="st1" d="M30.5,45.2c-2.1,0-3.8-1.7-3.8-3.8s1.7-3.8,3.8-3.8s3.8,1.7,3.8,3.8S32.6,45.2,30.5,45.2z"/></g><g><path class="st1" d="M50.8,38c-2.1,0-3.8-1.7-3.8-3.8s1.7-3.8,3.8-3.8s3.8,1.7,3.8,3.8S52.9,38,50.8,38z"/></g><g><path class="st1" d="M63,45.7c-2.1,0-3.8-1.7-3.8-3.8c0-2.1,1.7-3.8,3.8-3.8c2.1,0,3.8,1.7,3.8,3.8C66.9,44,65.1,45.7,63,45.7z"/></g></g></svg>