<?xml version="1.0" ?><svg id="Layer_1" style="enable-background:new 0 0 96 96;" version="1.1" viewBox="0 0 96 96" xml:space="preserve" xmlns="http://www.w3.org/2000/svg" xmlns:xlink="http://www.w3.org/1999/xlink"><style type="text/css">
	.st0{fill:#FFFFFF;}
	.st1{fill:#292D34;}
	.st2{fill:#2DCB73;}
	.st3{fill:#F7C44C;}
	.st4{fill:none;}
</style><g><g><path class="st1" d="M48.1,95.5l0-4c1.6,0,3.2-0.1,4.7-0.3l0.4,3.9C51.6,95.4,49.8,95.5,48.1,95.5z M43,95.2    c-1.7-0.2-3.4-0.5-5.1-0.8l0.8-3.9c1.5,0.3,3.1,0.6,4.7,0.8L43,95.2z M32.9,93c-1.6-0.5-3.2-1.2-4.8-1.9l1.7-3.6    c1.4,0.7,2.9,1.2,4.4,1.7L32.9,93z M23.5,88.7c-1.5-0.9-2.9-1.9-4.3-2.9l2.4-3.2c1.3,1,2.6,1.8,3.9,2.7L23.5,88.7z M15.3,82.5    c-0.6-0.6-1.2-1.2-1.8-1.8l2.9-2.7c0.5,0.6,1.1,1.1,1.6,1.6L15.3,82.5z"/></g><g><path class="st1" d="M91.5,46.8c0-1.6-0.2-3.2-0.4-4.7l3.9-0.5c0.2,1.7,0.4,3.4,0.4,5.1L91.5,46.8z M90.3,37.5    c-0.4-1.5-0.8-3-1.4-4.5l3.7-1.4c0.6,1.6,1.1,3.3,1.5,4.9L90.3,37.5z M87,28.6c-0.7-1.4-1.5-2.8-2.3-4.1l3.3-2.1    c0.9,1.4,1.8,3,2.5,4.5L87,28.6z M81.9,20.7c-1-1.2-2.1-2.4-3.2-3.5l2.8-2.8c1.2,1.2,2.4,2.5,3.5,3.8L81.9,20.7z"/></g><g><rect class="st0" height="70.3" width="70.3" x="2.5" y="2.5"/><path class="st1" d="M74.8,74.8H0.5V0.5h74.3V74.8z M4.5,70.8h66.4V4.5H4.5V70.8z"/></g><g><rect class="st2" height="50.4" width="50.4" x="12.5" y="12.5"/></g><g><rect class="st1" height="28.1" width="4" x="35.7" y="26.6"/></g><g><polygon class="st1" points="44.2,41.3 37.7,30.4 31.1,41.3 27.7,39.3 37.7,22.7 47.6,39.3   "/></g><g><circle class="st0" cx="70.3" cy="70.3" r="23.2"/><path class="st1" d="M70.3,95.5c-13.9,0-25.2-11.3-25.2-25.2s11.3-25.2,25.2-25.2s25.2,11.3,25.2,25.2S84.2,95.5,70.3,95.5z     M70.3,49.1c-11.7,0-21.2,9.5-21.2,21.2s9.5,21.2,21.2,21.2S91.5,82,91.5,70.3S82,49.1,70.3,49.1z"/></g><g><circle class="st3" cx="70.3" cy="70.3" r="14.6"/><path class="st3" d="M70.3,86.9c-9.1,0-16.5-7.4-16.5-16.5s7.4-16.5,16.5-16.5s16.5,7.4,16.5,16.5S79.5,86.9,70.3,86.9z     M70.3,57.7c-6.9,0-12.6,5.6-12.6,12.6c0,6.9,5.6,12.6,12.6,12.6s12.6-5.6,12.6-12.6C82.9,63.4,77.3,57.7,70.3,57.7z"/></g><g><path class="st1" d="M71.3,79.9v3h-2V80c-1.9,0-3.6-0.4-5.2-1.3v-3.8c0.5,0.4,1.3,0.8,2.4,1.2c1.1,0.4,2,0.6,2.8,0.6v-5    c-2.1-0.8-3.6-1.7-4.4-2.6c-0.8-0.9-1.2-2.1-1.2-3.4c0-1.4,0.5-2.7,1.5-3.7c1-1,2.4-1.6,4-1.8v-2.6h2v2.5c1.9,0.1,3.4,0.4,4.3,0.9    v3.7c-1.3-0.8-2.7-1.3-4.3-1.4v5.2c2,0.7,3.4,1.5,4.3,2.5c0.9,0.9,1.3,2.1,1.3,3.4c0,1.5-0.5,2.7-1.5,3.7    C74.5,79.1,73.1,79.7,71.3,79.9z M69.3,67.9v-4.3c-1.3,0.2-1.9,0.9-1.9,2C67.4,66.5,68,67.3,69.3,67.9z M71.3,72.5v4.2    c1.3-0.2,2-0.9,2-2C73.3,73.8,72.6,73.1,71.3,72.5z"/></g></g></svg>